<svg xmlns="http://www.w3.org/2000/svg" width="45" height="27"><path fill="#f4c45d" d="M40.078 10.73c0 .955-.788 1.731-1.758 1.731s-1.758-.776-1.758-1.73c0-.955.789-1.731 1.758-1.731.97 0 1.758.776 1.758 1.73zm-.703 0c0-.572-.473-1.038-1.055-1.038-.581 0-1.054.466-1.054 1.039 0 .572.473 1.038 1.054 1.038.582 0 1.055-.466 1.055-1.038zm-.682 0a.35.35 0 01-.351.347.352.352 0 01-.356-.346c0-.192.154-.346.348-.346h.008a.35.35 0 01.351.346zm-2.812 0a.35.35 0 01-.352.347.346.346 0 11-.008-.692h.008a.35.35 0 01.352.346zm7.03-6.23a.35.35 0 01-.35.346.346.346 0 11-.008-.692h.007a.35.35 0 01.352.346zm0-2.77a.35.35 0 01-.35.347.345.345 0 11-.008-.692h.007a.35.35 0 01.352.346zm-1.405 9a.35.35 0 01-.352.347.346.346 0 11-.008-.692h.008a.35.35 0 01.352.346zm1.406 0a.35.35 0 01-.352.347.346.346 0 11-.008-.692h.008a.35.35 0 01.352.346zm-8.438 0a.35.35 0 01-.351.347.346.346 0 11-.008-.692h.008a.35.35 0 01.351.346zM15.49 20.424a.349.349 0 01-.352.346.352.352 0 01-.355-.346c0-.191.154-.346.348-.346h.007a.35.35 0 01.352.346zm4.446-14.986l-9.14 9a.353.353 0 01-.498 0 .342.342 0 010-.49l9.14-9a.355.355 0 01.498 0 .342.342 0 010 .49zm-.703 4.846l-3.516 3.462a.353.353 0 01-.497 0 .342.342 0 010-.49l3.516-3.461a.355.355 0 01.497 0 .342.342 0 010 .489zM15.014 6.13L11.5 9.591a.353.353 0 01-.498 0 .342.342 0 010-.49l3.516-3.461a.355.355 0 01.497 0 .342.342 0 010 .49zm-3.067 16.79l-.703 2.77a.35.35 0 01-.427.252.346.346 0 01-.256-.42l.703-2.77a.351.351 0 01.427-.252.346.346 0 01.256.42zm7.47 3.021a.35.35 0 01-.426-.252l-.704-2.769a.346.346 0 01.256-.42.354.354 0 01.427.252l.703 2.77a.346.346 0 01-.256.42zm2.38.714a.349.349 0 01-.352.346H8.783a.349.349 0 01-.351-.346c0-.192.157-.346.351-.346h12.662c.195 0 .352.154.352.346zM28.828 1.73v15.923a.349.349 0 01-.352.346H1.758a.349.349 0 01-.352-.346V1.73c0-.192.157-.346.352-.346h26.718c.195 0 .352.154.352.346zm-.703.346H2.109v15.23h26.016zm2.11-.346v18.692c0 .955-.789 1.73-1.759 1.73H1.758c-.97 0-1.758-.775-1.758-1.73V1.73C0 .776.788 0 1.758 0h26.718c.97 0 1.758.776 1.758 1.73zm-.704 18.692v-1.05H.703v1.05c0 .573.473 1.038 1.055 1.038h26.718c.582 0 1.055-.465 1.055-1.038zm0-18.692c0-.573-.473-1.039-1.055-1.039H1.758C1.176.691.703 1.157.703 1.73v16.95h28.828zM45 1.038v24.923c0 .573-.473 1.039-1.055 1.039h-11.25a1.048 1.048 0 01-1.054-1.039V1.038A1.047 1.047 0 0132.695 0h11.25C44.527 0 45 .466 45 1.038zm-.703 0a.353.353 0 00-.352-.346h-11.25a.35.35 0 00-.351.346v24.923a.35.35 0 00.351.347h11.25a.354.354 0 00.352-.347zM42.89 24.577a.349.349 0 01-.352.346H34.1a.349.349 0 01-.351-.346c0-.192.157-.346.351-.346h8.438c.194 0 .352.154.352.346zm0-2.077a.349.349 0 01-.352.346H34.1a.349.349 0 01-.351-.346c0-.192.157-.346.351-.346h8.438c.194 0 .352.154.352.346zm0-2.077a.349.349 0 01-.352.346H34.1a.349.349 0 01-.351-.346c0-.191.157-.346.351-.346h8.438a.35.35 0 01.352.346zm0-2.077a.349.349 0 01-.352.346H34.1a.349.349 0 01-.351-.346c0-.191.157-.346.351-.346h8.438a.35.35 0 01.352.346zm-4.922-2.77v.693a.349.349 0 01-.352.346.349.349 0 01-.351-.346v-.346h-1.407v.346a.349.349 0 01-.351.346.349.349 0 01-.352-.346v-.692c0-.192.157-.346.352-.346h2.11c.193 0 .35.154.35.346zm3.515 0v.693a.349.349 0 01-.351.346.349.349 0 01-.352-.346v-.346h-1.406v.346a.349.349 0 01-.352.346.349.349 0 01-.351-.346v-.692c0-.192.157-.346.351-.346h2.11c.194 0 .351.154.351.346zm2.11-12.46a.349.349 0 01-.352.345h-9.844a.349.349 0 01-.351-.346c0-.191.157-.346.351-.346h9.844a.35.35 0 01.352.346zm0 2.768a.349.349 0 01-.352.347h-9.844a.349.349 0 01-.351-.347.35.35 0 01.351-.346h9.844a.35.35 0 01.352.346z"/></svg>