<svg xmlns="http://www.w3.org/2000/svg" width="17" height="17"><path fill="#f4c45c" d="M15.415 12.508c.363.359.553.786.553 1.23 0 .442-.187.872-.542 1.242a14.22 14.22 0 01-.467.463c-.227.219-.442.423-.63.65-.003.006-.01.01-.014.017-.546.592-1.243.89-2.073.89a4.96 4.96 0 01-.226-.007c-1.233-.08-2.336-.542-3.162-.933a16.907 16.907 0 01-5.63-4.403C1.925 10.1 1.055 8.647.473 7.08c-.237-.638-.546-1.614-.46-2.662.058-.65.32-1.21.78-1.669l1.222-1.23.007-.007c.36-.345.783-.528 1.222-.528.438 0 .855.183 1.203.528.234.215.46.445.676.667.108.115.223.23.334.34l.981.98c.755.754.755 1.73 0 2.483-.1.1-.201.205-.302.305-.266.27-.539.55-.833.818.219.485.52.962.97 1.529.927 1.137 1.893 2.016 2.957 2.69.104.065.226.126.356.191.09.047.183.093.276.143L11 10.527c.363-.362.787-.552 1.229-.552.445 0 .866.193 1.214.556zm-.69.678l-1.98-1.977-.007-.007c-.111-.122-.295-.262-.517-.262-.227 0-.42.147-.543.269l-1.229 1.227a.768.768 0 01-.546.248.78.78 0 01-.356-.09l-.043-.025a4.566 4.566 0 00-.356-.19c-.143-.072-.294-.147-.442-.24-1.153-.73-2.199-1.68-3.19-2.9l-.004-.003c-.546-.693-.905-1.274-1.16-1.891a3.223 3.223 0 00-.011-.033c-.065-.204-.123-.505.186-.814.004-.007.011-.01.018-.018.313-.28.6-.567.902-.875.104-.1.205-.205.31-.309.38-.38.38-.732 0-1.112l-.982-.98c-.115-.118-.23-.233-.34-.348-.22-.226-.429-.437-.648-.642l-.01-.01c-.116-.116-.299-.252-.525-.252-.183 0-.37.09-.546.255L1.48 3.43c-.298.298-.46.646-.496 1.066-.053.656.069 1.353.403 2.246.543 1.464 1.362 2.827 2.587 4.302a15.958 15.958 0 005.304 4.148c.744.355 1.735.771 2.802.84.054.003.112.003.166.003.56 0 .988-.183 1.35-.57.224-.263.46-.496.694-.718.155-.151.299-.287.439-.438-.004.004-.004 0 0 0 .366-.38.366-.757-.004-1.123zM8.796 3.484a.487.487 0 01.56-.394 5.544 5.544 0 013.001 1.553 5.531 5.531 0 011.556 2.996.485.485 0 01-.399.56c-.029.003-.054.007-.082.007a.482.482 0 01-.478-.402 4.571 4.571 0 00-1.287-2.476 4.559 4.559 0 00-2.48-1.284.48.48 0 01-.39-.56zm7.801 4.568c-.028.003-.054.007-.082.007a.482.482 0 01-.478-.402 8.125 8.125 0 00-2.29-4.41A8.17 8.17 0 009.333.962.483.483 0 119.49.008a9.123 9.123 0 014.94 2.558 9.1 9.1 0 012.562 4.933.476.476 0 01-.395.553z"/></svg>