<svg height="17" viewBox="0 0 368 368" width="17" xmlns="http://www.w3.org/2000/svg"><path fill="#f4c45c" d="M328 0H40C17.945 0 0 17.945 0 40v288c0 22.055 17.945 40 40 40h288c22.055 0 40-17.945 40-40V40c0-22.055-17.945-40-40-40zm24 328c0 13.23-10.77 24-24 24H40c-13.23 0-24-10.77-24-24V40c0-13.23 10.77-24 24-24h288c13.23 0 24 10.77 24 24zm0 0"/><path fill="#f4c45c" d="M184 48c-74.992 0-136 61.008-136 136s61.008 136 136 136 136-61.008 136-136S258.992 48 184 48zm0 256c-66.168 0-120-53.832-120-120S117.832 64 184 64s120 53.832 120 120-53.832 120-120 120zm0 0"/><path fill="#f4c45c" d="M221.672 130.36c-3.121-3.137-8.176-3.16-11.313-.032a7.99 7.99 0 00-.03 11.313L244.503 176H123.129l34.512-34.328c3.136-3.121 3.152-8.176.03-11.313s-8.175-3.16-11.312-.03l-48 47.741A7.968 7.968 0 0096 183.72c0 .05.023.097.023.144s-.023.09-.023.137c0 2.55 1.273 4.727 3.129 6.191l47.2 47.45A7.99 7.99 0 00152 240a7.98 7.98 0 005.64-2.328 7.99 7.99 0 00.032-11.313L123.496 192h121.375l-34.512 34.328a7.99 7.99 0 00-.03 11.313A7.99 7.99 0 00216 240a7.98 7.98 0 005.64-2.328l48-47.742a8.014 8.014 0 002.36-5.649c0-.05-.023-.097-.023-.144s.023-.09.023-.137c0-2.55-1.273-4.727-3.129-6.191zm0 0"/></svg>